<svg width="246" height="40" viewBox="0 0 246 40" fill="none" xmlns="http://www.w3.org/2000/svg">
<path d="M0.14209 39V0.247559H33.0938V7.68652H10.0249V15.958H31.563V22.833H10.0249V31.561H33.0938V39H0.14209ZM43.8091 27.3447V20.1206H58.5796C60.8534 20.1206 62.599 19.5835 63.8164 18.5093C65.0518 17.4351 65.6694 15.8953 65.6694 13.8901V13.8364C65.6694 11.8312 65.0518 10.3005 63.8164 9.24414C62.599 8.16992 60.8534 7.63281 58.5796 7.63281H43.8091V0.247559H60.4326C63.5479 0.247559 66.2424 0.811523 68.5161 1.93945C70.8078 3.06738 72.5713 4.6429 73.8066 6.66602C75.042 8.68913 75.6597 11.0524 75.6597 13.7559V13.8096C75.6597 16.4951 75.033 18.8584 73.7798 20.8994C72.5444 22.9225 70.7899 24.507 68.5161 25.6528C66.2424 26.7808 63.5479 27.3447 60.4326 27.3447H43.8091ZM38.8677 39V0.247559H48.7236V39H38.8677ZM80.3325 39V0.247559H90.2153V39H80.3325ZM117.098 39.6714C115.289 39.6714 113.642 39.4297 112.156 38.9463C110.688 38.445 109.417 37.7646 108.343 36.9053C107.269 36.028 106.409 34.9985 105.765 33.8169H105.577V39H96.043V0.247559H105.577V15.3403H105.765C106.409 14.1587 107.269 13.1292 108.343 12.252C109.435 11.3568 110.715 10.6675 112.183 10.1841C113.651 9.68278 115.289 9.43213 117.098 9.43213C119.998 9.43213 122.514 10.0498 124.644 11.2852C126.792 12.5205 128.449 14.2661 129.612 16.522C130.794 18.7778 131.385 21.4455 131.385 24.5249V24.5518C131.385 27.6312 130.794 30.2988 129.612 32.5547C128.449 34.8105 126.792 36.5651 124.644 37.8184C122.514 39.0537 119.998 39.6714 117.098 39.6714ZM113.687 32.5815C115.334 32.5815 116.749 32.2593 117.93 31.6147C119.13 30.9702 120.052 30.0571 120.696 28.8755C121.341 27.6759 121.663 26.2347 121.663 24.5518V24.5249C121.663 22.8599 121.341 21.4276 120.696 20.228C120.052 19.0285 119.13 18.1154 117.93 17.4888C116.731 16.8442 115.316 16.522 113.687 16.522C112.058 16.522 110.634 16.8442 109.417 17.4888C108.2 18.1333 107.251 19.0643 106.57 20.2817C105.908 21.4813 105.577 22.8957 105.577 24.5249V24.5786C105.577 26.2078 105.908 27.6312 106.57 28.8486C107.251 30.0482 108.191 30.9702 109.39 31.6147C110.608 32.2593 112.04 32.5815 113.687 32.5815ZM151.902 39.6714C148.34 39.6714 145.242 39.0627 142.61 37.8452C139.996 36.6278 137.964 34.8911 136.514 32.6353C135.082 30.3794 134.366 27.6938 134.366 24.5786V24.5249C134.366 21.4097 135.091 18.7331 136.541 16.4951C137.991 14.2393 140.023 12.5026 142.637 11.2852C145.269 10.0498 148.357 9.43213 151.902 9.43213C155.447 9.43213 158.527 10.0409 161.141 11.2583C163.772 12.4757 165.813 14.2124 167.264 16.4683C168.714 18.7241 169.439 21.4097 169.439 24.5249V24.5786C169.439 27.6938 168.714 30.3794 167.264 32.6353C165.831 34.8911 163.799 36.6278 161.167 37.8452C158.554 39.0627 155.465 39.6714 151.902 39.6714ZM151.902 32.8232C153.478 32.8232 154.847 32.501 156.011 31.8564C157.193 31.2119 158.106 30.272 158.75 29.0366C159.413 27.8013 159.744 26.3153 159.744 24.5786V24.5249C159.744 22.7882 159.413 21.3112 158.75 20.0938C158.088 18.8584 157.166 17.9185 155.984 17.2739C154.821 16.6115 153.46 16.2803 151.902 16.2803C150.345 16.2803 148.975 16.6115 147.793 17.2739C146.612 17.9185 145.69 18.8584 145.027 20.0938C144.383 21.3112 144.061 22.7882 144.061 24.5249V24.5786C144.061 26.3153 144.383 27.8013 145.027 29.0366C145.69 30.272 146.603 31.2119 147.767 31.8564C148.948 32.501 150.327 32.8232 151.902 32.8232ZM189.93 39.6714C186.367 39.6714 183.27 39.0627 180.638 37.8452C178.024 36.6278 175.992 34.8911 174.542 32.6353C173.109 30.3794 172.393 27.6938 172.393 24.5786V24.5249C172.393 21.4097 173.118 18.7331 174.568 16.4951C176.019 14.2393 178.051 12.5026 180.665 11.2852C183.296 10.0498 186.385 9.43213 189.93 9.43213C193.475 9.43213 196.554 10.0409 199.168 11.2583C201.8 12.4757 203.841 14.2124 205.291 16.4683C206.741 18.7241 207.466 21.4097 207.466 24.5249V24.5786C207.466 27.6938 206.741 30.3794 205.291 32.6353C203.859 34.8911 201.827 36.6278 199.195 37.8452C196.581 39.0627 193.493 39.6714 189.93 39.6714ZM189.93 32.8232C191.505 32.8232 192.875 32.501 194.039 31.8564C195.22 31.2119 196.133 30.272 196.778 29.0366C197.44 27.8013 197.771 26.3153 197.771 24.5786V24.5249C197.771 22.7882 197.44 21.3112 196.778 20.0938C196.115 18.8584 195.193 17.9185 194.012 17.2739C192.848 16.6115 191.487 16.2803 189.93 16.2803C188.372 16.2803 187.002 16.6115 185.821 17.2739C184.639 17.9185 183.717 18.8584 183.055 20.0938C182.41 21.3112 182.088 22.7882 182.088 24.5249V24.5786C182.088 26.3153 182.41 27.8013 183.055 29.0366C183.717 30.272 184.63 31.2119 185.794 31.8564C186.976 32.501 188.354 32.8232 189.93 32.8232ZM211.656 39V0.247559H221.189V39H211.656ZM234.268 39L223.177 25.8408L229.515 19.6909L245.547 39H234.268ZM220.035 30.9165V21.4634H221.351L233.731 10.0767H244.903L228.548 25.1426L226.319 25.438L220.035 30.9165Z" fill="white"/>
</svg>
