<svg width="461" height="109" viewBox="0 0 461 109" fill="none" xmlns="http://www.w3.org/2000/svg">
<path d="M90.7031 0H0V109H90.5363V85.8834H28.178V64.6039H85.0341V42.8652H28.178V23.1166H90.7031V0Z" fill="black"/>
<path d="M103.883 0V109H132.061V73.4831H157.904C171.577 73.4831 182.248 70.2683 190.084 63.6854C197.754 57.1025 201.755 48.0702 201.755 36.7416C201.755 25.4129 197.754 16.5337 190.084 9.95084C182.248 3.36797 171.577 0 157.904 0H103.883ZM132.061 51.5913V21.8919H156.07C161.406 21.8919 165.741 23.2697 168.909 25.7191C171.91 28.3216 173.577 31.9958 173.577 36.7416C173.577 41.6404 171.91 45.3146 168.909 47.764C165.908 50.3666 161.573 51.5913 156.07 51.5913H132.061Z" fill="black"/>
<path d="M242.782 109V0H214.604V109H242.782Z" fill="black"/>
<path d="M253.522 0V23.1166H289.87V109H318.215V23.1166H354.73V0H253.522Z" fill="black"/>
<path d="M461 109L416.315 0H382.802L339.118 109H367.963L374.799 90.0169H424.152L431.155 109H461ZM389.471 49.7542C390.138 48.0702 393.306 38.8848 399.309 22.198C403.81 35.0576 407.145 44.243 409.313 49.7542L416.149 68.4312H382.635L389.471 49.7542Z" fill="black"/>
</svg>
